<svg xmlns="http://www.w3.org/2000/svg" xmlns:xlink="http://www.w3.org/1999/xlink" contentStyleType="text/css" data-diagram-type="ACTIVITY" height="833px" preserveAspectRatio="none" style="width:208px;height:833px;background:#FFFFFF;" version="1.1" viewBox="0 0 208 833" width="208px" zoomAndPan="magnify"><defs/><g><ellipse cx="74.7773" cy="20" fill="#222222" rx="10" ry="10" style="stroke:#222222;stroke-width:1;"/><rect fill="#F1F1F1" height="33.9688" rx="12.5" ry="12.5" style="stroke:#181818;stroke-width:0.5;" width="127.5547" x="11" y="50"/><text fill="#000000" font-family="sans-serif" font-size="12" lengthAdjust="spacing" textLength="107.5547" x="21" y="71.1387">&#1042;&#1074;&#1086;&#1076; X, A, B, C, D</text><rect fill="#F1F1F1" height="33.9688" rx="12.5" ry="12.5" style="stroke:#181818;stroke-width:0.5;" width="79.1738" x="35.1904" y="103.9688"/><text fill="#000000" font-family="sans-serif" font-size="12" lengthAdjust="spacing" textLength="59.1738" x="45.1904" y="125.1074">count = 0</text><rect fill="#F1F1F1" height="33.9688" rx="12.5" ry="12.5" style="stroke:#181818;stroke-width:0.5;" width="79.1738" x="35.1904" y="206.3398"/><text fill="#000000" font-family="sans-serif" font-size="12" lengthAdjust="spacing" textLength="59.1738" x="45.1904" y="227.4785">count = 1</text><rect fill="#F1F1F1" height="33.9688" rx="12.5" ry="12.5" style="stroke:#181818;stroke-width:0.5;" width="79.1738" x="35.1904" y="308.7109"/><text fill="#000000" font-family="sans-serif" font-size="12" lengthAdjust="spacing" textLength="59.1738" x="45.1904" y="329.8496">count = 2</text><rect fill="#F1F1F1" height="33.9688" rx="12.5" ry="12.5" style="stroke:#181818;stroke-width:0.5;" width="79.1738" x="35.1904" y="411.082"/><text fill="#000000" font-family="sans-serif" font-size="12" lengthAdjust="spacing" textLength="59.1738" x="45.1904" y="432.2207">count = 3</text><rect fill="#F1F1F1" height="33.9688" rx="12.5" ry="12.5" style="stroke:#181818;stroke-width:0.5;" width="79.1738" x="35.1904" y="517.0352"/><text fill="#000000" font-family="sans-serif" font-size="12" lengthAdjust="spacing" textLength="59.1738" x="45.1904" y="538.1738">count = 4</text><polygon fill="#F1F1F1" points="58.6694,468.6328,90.8853,468.6328,102.8853,480.6328,90.8853,492.6328,58.6694,492.6328,46.6694,480.6328,58.6694,468.6328" style="stroke:#181818;stroke-width:0.5;"/><text fill="#000000" font-family="sans-serif" font-size="11" lengthAdjust="spacing" textLength="19.0083" x="78.7773" y="502.8433">yes</text><text fill="#000000" font-family="sans-serif" font-size="11" lengthAdjust="spacing" textLength="32.2158" x="58.6694" y="484.4409">X &#8804; D</text><polygon fill="#F1F1F1" points="74.7773,571.0039,86.7773,583.0039,74.7773,595.0039,62.7773,583.0039,74.7773,571.0039" style="stroke:#181818;stroke-width:0.5;"/><polygon fill="#F1F1F1" points="59.0642,362.6797,90.4905,362.6797,102.4905,374.6797,90.4905,386.6797,59.0642,386.6797,47.0642,374.6797,59.0642,362.6797" style="stroke:#181818;stroke-width:0.5;"/><text fill="#000000" font-family="sans-serif" font-size="11" lengthAdjust="spacing" textLength="19.0083" x="78.7773" y="396.8901">yes</text><text fill="#000000" font-family="sans-serif" font-size="11" lengthAdjust="spacing" textLength="31.4263" x="59.0642" y="378.4878">X &#8804; C</text><polygon fill="#F1F1F1" points="74.7773,615.0039,86.7773,627.0039,74.7773,639.0039,62.7773,627.0039,74.7773,615.0039" style="stroke:#181818;stroke-width:0.5;"/><polygon fill="#F1F1F1" points="59.1313,260.3086,90.4233,260.3086,102.4233,272.3086,90.4233,284.3086,59.1313,284.3086,47.1313,272.3086,59.1313,260.3086" style="stroke:#181818;stroke-width:0.5;"/><text fill="#000000" font-family="sans-serif" font-size="11" lengthAdjust="spacing" textLength="19.0083" x="78.7773" y="294.519">yes</text><text fill="#000000" font-family="sans-serif" font-size="11" lengthAdjust="spacing" textLength="31.292" x="59.1313" y="276.1167">X &#8804; B</text><polygon fill="#F1F1F1" points="74.7773,659.0039,86.7773,671.0039,74.7773,683.0039,62.7773,671.0039,74.7773,659.0039" style="stroke:#181818;stroke-width:0.5;"/><polygon fill="#F1F1F1" points="59.1421,157.9375,90.4126,157.9375,102.4126,169.9375,90.4126,181.9375,59.1421,181.9375,47.1421,169.9375,59.1421,157.9375" style="stroke:#181818;stroke-width:0.5;"/><text fill="#000000" font-family="sans-serif" font-size="11" lengthAdjust="spacing" textLength="19.0083" x="78.7773" y="192.1479">yes</text><text fill="#000000" font-family="sans-serif" font-size="11" lengthAdjust="spacing" textLength="31.2705" x="59.1421" y="173.7456">X &#8804; A</text><polygon fill="#F1F1F1" points="74.7773,703.0039,86.7773,715.0039,74.7773,727.0039,62.7773,715.0039,74.7773,703.0039" style="stroke:#181818;stroke-width:0.5;"/><rect fill="#F1F1F1" height="33.9688" rx="12.5" ry="12.5" style="stroke:#181818;stroke-width:0.5;" width="98.0879" x="25.7334" y="747.0039"/><text fill="#000000" font-family="sans-serif" font-size="12" lengthAdjust="spacing" textLength="78.0879" x="35.7334" y="768.1426">&#1042;&#1099;&#1074;&#1086;&#1076; count</text><ellipse cx="74.7773" cy="811.9727" fill="none" rx="11" ry="11" style="stroke:#222222;stroke-width:1;"/><ellipse cx="74.7773" cy="811.9727" fill="#222222" rx="6" ry="6" style="stroke:#222222;stroke-width:1;"/><line style="stroke:#181818;stroke-width:1;" x1="74.7773" x2="74.7773" y1="30" y2="50"/><polygon fill="#181818" points="70.7773,40,74.7773,50,78.7773,40,74.7773,44" style="stroke:#181818;stroke-width:1;"/><line style="stroke:#181818;stroke-width:1;" x1="74.7773" x2="74.7773" y1="83.9688" y2="103.9688"/><polygon fill="#181818" points="70.7773,93.9688,74.7773,103.9688,78.7773,93.9688,74.7773,97.9688" style="stroke:#181818;stroke-width:1;"/><line style="stroke:#181818;stroke-width:1;" x1="74.7773" x2="74.7773" y1="492.6328" y2="517.0352"/><polygon fill="#181818" points="70.7773,507.0352,74.7773,517.0352,78.7773,507.0352,74.7773,511.0352" style="stroke:#181818;stroke-width:1;"/><line style="stroke:#181818;stroke-width:1;" x1="102.8853" x2="124.3643" y1="480.6328" y2="480.6328"/><polygon fill="#181818" points="120.3643,524.0195,124.3643,534.0195,128.3643,524.0195,124.3643,528.0195" style="stroke:#181818;stroke-width:1;"/><line style="stroke:#181818;stroke-width:1;" x1="124.3643" x2="124.3643" y1="480.6328" y2="583.0039"/><line style="stroke:#181818;stroke-width:1;" x1="124.3643" x2="86.7773" y1="583.0039" y2="583.0039"/><polygon fill="#181818" points="96.7773,579.0039,86.7773,583.0039,96.7773,587.0039,92.7773,583.0039" style="stroke:#181818;stroke-width:1;"/><line style="stroke:#181818;stroke-width:1;" x1="74.7773" x2="74.7773" y1="551.0039" y2="571.0039"/><polygon fill="#181818" points="70.7773,561.0039,74.7773,571.0039,78.7773,561.0039,74.7773,565.0039" style="stroke:#181818;stroke-width:1;"/><line style="stroke:#181818;stroke-width:1;" x1="74.7773" x2="74.7773" y1="445.0508" y2="468.6328"/><polygon fill="#181818" points="70.7773,458.6328,74.7773,468.6328,78.7773,458.6328,74.7773,462.6328" style="stroke:#181818;stroke-width:1;"/><line style="stroke:#181818;stroke-width:1;" x1="74.7773" x2="74.7773" y1="386.6797" y2="411.082"/><polygon fill="#181818" points="70.7773,401.082,74.7773,411.082,78.7773,401.082,74.7773,405.082" style="stroke:#181818;stroke-width:1;"/><line style="stroke:#181818;stroke-width:1;" x1="102.4905" x2="146.3643" y1="374.6797" y2="374.6797"/><polygon fill="#181818" points="142.3643,489.5352,146.3643,499.5352,150.3643,489.5352,146.3643,493.5352" style="stroke:#181818;stroke-width:1;"/><line style="stroke:#181818;stroke-width:1;" x1="146.3643" x2="146.3643" y1="374.6797" y2="627.0039"/><line style="stroke:#181818;stroke-width:1;" x1="146.3643" x2="86.7773" y1="627.0039" y2="627.0039"/><polygon fill="#181818" points="96.7773,623.0039,86.7773,627.0039,96.7773,631.0039,92.7773,627.0039" style="stroke:#181818;stroke-width:1;"/><line style="stroke:#181818;stroke-width:1;" x1="74.7773" x2="74.7773" y1="595.0039" y2="615.0039"/><polygon fill="#181818" points="70.7773,605.0039,74.7773,615.0039,78.7773,605.0039,74.7773,609.0039" style="stroke:#181818;stroke-width:1;"/><line style="stroke:#181818;stroke-width:1;" x1="74.7773" x2="74.7773" y1="342.6797" y2="362.6797"/><polygon fill="#181818" points="70.7773,352.6797,74.7773,362.6797,78.7773,352.6797,74.7773,356.6797" style="stroke:#181818;stroke-width:1;"/><line style="stroke:#181818;stroke-width:1;" x1="74.7773" x2="74.7773" y1="284.3086" y2="308.7109"/><polygon fill="#181818" points="70.7773,298.7109,74.7773,308.7109,78.7773,298.7109,74.7773,302.7109" style="stroke:#181818;stroke-width:1;"/><line style="stroke:#181818;stroke-width:1;" x1="102.4233" x2="164.3643" y1="272.3086" y2="272.3086"/><polygon fill="#181818" points="160.3643,455.0508,164.3643,465.0508,168.3643,455.0508,164.3643,459.0508" style="stroke:#181818;stroke-width:1;"/><line style="stroke:#181818;stroke-width:1;" x1="164.3643" x2="164.3643" y1="272.3086" y2="671.0039"/><line style="stroke:#181818;stroke-width:1;" x1="164.3643" x2="86.7773" y1="671.0039" y2="671.0039"/><polygon fill="#181818" points="96.7773,667.0039,86.7773,671.0039,96.7773,675.0039,92.7773,671.0039" style="stroke:#181818;stroke-width:1;"/><line style="stroke:#181818;stroke-width:1;" x1="74.7773" x2="74.7773" y1="639.0039" y2="659.0039"/><polygon fill="#181818" points="70.7773,649.0039,74.7773,659.0039,78.7773,649.0039,74.7773,653.0039" style="stroke:#181818;stroke-width:1;"/><line style="stroke:#181818;stroke-width:1;" x1="74.7773" x2="74.7773" y1="240.3086" y2="260.3086"/><polygon fill="#181818" points="70.7773,250.3086,74.7773,260.3086,78.7773,250.3086,74.7773,254.3086" style="stroke:#181818;stroke-width:1;"/><line style="stroke:#181818;stroke-width:1;" x1="74.7773" x2="74.7773" y1="181.9375" y2="206.3398"/><polygon fill="#181818" points="70.7773,196.3398,74.7773,206.3398,78.7773,196.3398,74.7773,200.3398" style="stroke:#181818;stroke-width:1;"/><line style="stroke:#181818;stroke-width:1;" x1="102.4126" x2="182.3643" y1="169.9375" y2="169.9375"/><polygon fill="#181818" points="178.3643,431.9844,182.3643,441.9844,186.3643,431.9844,182.3643,435.9844" style="stroke:#181818;stroke-width:1;"/><line style="stroke:#181818;stroke-width:1;" x1="182.3643" x2="182.3643" y1="169.9375" y2="715.0039"/><line style="stroke:#181818;stroke-width:1;" x1="182.3643" x2="86.7773" y1="715.0039" y2="715.0039"/><polygon fill="#181818" points="96.7773,711.0039,86.7773,715.0039,96.7773,719.0039,92.7773,715.0039" style="stroke:#181818;stroke-width:1;"/><line style="stroke:#181818;stroke-width:1;" x1="74.7773" x2="74.7773" y1="683.0039" y2="703.0039"/><polygon fill="#181818" points="70.7773,693.0039,74.7773,703.0039,78.7773,693.0039,74.7773,697.0039" style="stroke:#181818;stroke-width:1;"/><line style="stroke:#181818;stroke-width:1;" x1="74.7773" x2="74.7773" y1="137.9375" y2="157.9375"/><polygon fill="#181818" points="70.7773,147.9375,74.7773,157.9375,78.7773,147.9375,74.7773,151.9375" style="stroke:#181818;stroke-width:1;"/><line style="stroke:#181818;stroke-width:1;" x1="74.7773" x2="74.7773" y1="727.0039" y2="747.0039"/><polygon fill="#181818" points="70.7773,737.0039,74.7773,747.0039,78.7773,737.0039,74.7773,741.0039" style="stroke:#181818;stroke-width:1;"/><line style="stroke:#181818;stroke-width:1;" x1="74.7773" x2="74.7773" y1="780.9727" y2="800.9727"/><polygon fill="#181818" points="70.7773,790.9727,74.7773,800.9727,78.7773,790.9727,74.7773,794.9727" style="stroke:#181818;stroke-width:1;"/><!--SRC=[Aov9B2hXuhAwCEd2fWlxBcnHYD1HSDHHSD9HSDPHSB7ciahEByqhKR1LCB3cuifCKz28K7ZKkKJ1KLEX92CrJq6ZChLOaqj10QxCq1h8GwXpGbE7fDB86in7g7N6K8kasjWQAe9Gxu95FP8E4vYErBoKp3GkP1Q4Xf0Whr_iXdeUhDUQgxWalm00]--></g></svg>